<svg width="12" height="12" viewBox="0 0 12 12" fill="none" xmlns="http://www.w3.org/2000/svg">
<path d="M2.16661 1C1.52229 1 0.999973 1.52233 0.999973 2.16667V9.83333C0.999973 10.4777 1.52229 11 2.16661 11H9.83307C10.4774 11 10.9997 10.4777 10.9997 9.83333V7.16667C10.9997 6.89053 11.2236 6.66667 11.4997 6.66667C11.7759 6.66667 11.9997 6.89053 11.9997 7.16667V9.83333C11.9997 11.0299 11.0297 12 9.83307 12H2.16661C0.970027 12 0 11.0299 0 9.83333V2.16667C0 0.970047 0.970027 0 2.16661 0H4.8332C5.10933 0 5.3332 0.22386 5.3332 0.5C5.3332 0.77614 5.10933 1 4.8332 1H2.16661ZM6.66653 0.5C6.66653 0.22386 6.89033 0 7.16647 0H11.5C11.7761 0 12 0.22386 12 0.5V4.83333C12 5.10947 11.7761 5.33333 11.5 5.33333C11.2239 5.33333 11 5.10947 11 4.83333V1.70716L7.52 5.18693C7.32473 5.38213 7.0082 5.38213 6.81293 5.18687C6.61767 4.9916 6.61767 4.675 6.81293 4.47976L10.293 1H7.16647C6.89033 1 6.66653 0.77614 6.66653 0.5Z" fill="white"/>
</svg>
